Coordinates
version=1
nRows=10
nColumns=22
inDegrees=yes

Units are S.I. units (second, meters, Newtons, ...)
If the header above contains a line with 'inDegrees', this indicates whether rotational values are in degrees (yes) or radians (no).

endheader
time	pelvis_tilt	pelvis_list	pelvis_rotation	pelvis_tx	pelvis_ty	pelvis_tz	hip_flexion_r	hip_adduction_r	hip_rotation_r	knee_angle_r	ankle_angle_r	subtalar_angle_r	hip_flexion_l	hip_adduction_l	hip_rotation_l	knee_angle_l	ankle_angle_l	subtalar_angle_l	lumbar_extension	lumbar_bending	lumbar_rotation
      5.51000000	     -2.10833115	     -4.99447497	    268.48823684	     -0.56974361	      0.92064231	      0.34749434	      6.89878014	     -6.27069687	      3.74446160	    -67.13115502	    -13.44986661	     14.83802611	     10.34146143	      0.89130268	    -32.08751814	    -24.15300657	      9.12816072	    -16.70677563	     -6.83536579	     -4.80598089	     11.88118335
      5.52000000	     -2.00520022	     -5.05477700	    269.81234611	     -0.56542117	      0.92140573	      0.35499906	      8.21245083	     -6.06306644	      3.77849360	    -67.86458205	    -12.45401578	     14.84989619	      9.65893860	      1.48825444	    -31.02637078	    -23.74740919	      9.27567235	    -16.55353847	     -6.96608662	     -4.67730534	     11.23043483
      5.53000000	     -1.90574609	     -5.02580647	    271.24753230	     -0.56091734	      0.92204066	      0.36231580	      9.56939373	     -5.89928376	      3.69272267	    -68.35093181	    -11.52503786	     14.71112810	      9.06314961	      2.08715769	    -29.79379438	    -23.30838217	      9.32603694	    -16.34731866	     -7.00041322	     -4.53991395	     10.51889555
      5.54000000	     -1.82108493	     -5.00387707	    272.75537709	     -0.55632439	      0.92262551	      0.36945096	     10.85386114	     -5.75955884	      3.54187428	    -68.59273834	    -10.47816583	     14.49115668	      8.46535065	      2.63786315	    -28.52008240	    -22.90597492	      9.42455688	    -16.15758883	     -7.05295964	     -4.39205545	      9.77412806
      5.55000000	     -1.74172587	     -5.00225485	    274.34708097	     -0.55161061	      0.92320075	      0.37637994	     12.05031014	     -5.65914394	      3.32610672	    -68.58959033	     -9.46146762	     14.34708454	      7.84220557	      3.16623787	    -27.13695979	    -22.50513282	      9.48113006	    -16.02462698	     -7.14302715	     -4.24029208	      8.99173035
      5.56000000	     -1.67209010	     -4.98959776	    275.99518200	     -0.54682053	      0.92369779	      0.38313221	     13.19662476	     -5.59758432	      3.06013822	    -68.35875236	     -8.45341432	     14.08011603	      7.22392147	      3.65952646	    -25.69561077	    -22.10962984	      9.54740890	    -15.89092119	     -7.22578366	     -4.08208262	      8.19540969
      5.57000000	     -1.60674591	     -4.98870575	    277.67378714	     -0.54201145	      0.92413547	      0.38970555	     14.26973050	     -5.56897165	      2.77401519	    -67.91235104	     -7.42365345	     13.60335346	      6.59016118	      4.11151219	    -24.22570536	    -21.73259784	      9.64194821	    -15.75881190	     -7.32758302	     -3.92578635	      7.41019575
      5.58000000	     -1.54445579	     -4.99883785	    279.38407577	     -0.53717740	      0.92452986	      0.39610550	     15.26663165	     -5.56959617	      2.47766068	    -67.25155955	     -6.48211057	     13.16713001	      5.93700554	      4.53021089	    -22.69824279	    -21.35756577	      9.73086838	    -15.65970406	     -7.44859931	     -3.77053994	      6.63133399
      5.59000000	     -1.48481401	     -5.01638430	    281.10631432	     -0.53236058	      0.92487180	      0.40235387	     16.19042206	     -5.59193373	      2.18807245	    -66.38681369	     -5.60115664	     12.66188486	      5.26984858	      4.90876864	    -21.14282037	    -20.99136296	      9.82883326	    -15.57690933	     -7.58151542	     -3.61842893	      5.87583527
      5.60000000	     -1.42812111	     -5.03497190	    282.83259049	     -0.52759226	      0.92515980	      0.40844594	     17.04918148	     -5.62488742	      1.92137158	    -65.32695288	     -4.82478482	     12.16238915	      4.60422191	      5.24572235	    -19.54793381	    -20.64563755	      9.91711391	    -15.51489648	     -7.72071151	     -3.47278894	      5.14550289
